<svg width="349" height="26" viewBox="0 0 349 26" fill="none" xmlns="http://www.w3.org/2000/svg">
<path d="M44.24 15.296C44.016 15.8933 43.696 16.4107 43.28 16.848C42.864 17.2747 42.3733 17.6 41.808 17.824C41.2533 18.048 40.6453 18.16 39.984 18.16C38.9813 18.16 38.112 17.9413 37.376 17.504C36.6507 17.056 36.0853 16.4267 35.68 15.616C35.2853 14.8053 35.088 13.84 35.088 12.72C35.088 11.6 35.2853 10.6347 35.68 9.824C36.0853 9.01333 36.6507 8.38933 37.376 7.952C38.112 7.504 38.9707 7.28 39.952 7.28C40.6347 7.28 41.2427 7.376 41.776 7.568C42.3093 7.74933 42.7627 8.02667 43.136 8.4C43.52 8.76267 43.824 9.21067 44.048 9.744L42.784 10.336C42.5493 9.728 42.208 9.26933 41.76 8.96C41.3227 8.64 40.752 8.48 40.048 8.48C39.3333 8.48 38.704 8.65067 38.16 8.992C37.616 9.32267 37.1893 9.80267 36.88 10.432C36.5813 11.0613 36.432 11.824 36.432 12.72C36.432 13.6053 36.576 14.368 36.864 15.008C37.152 15.6373 37.5627 16.1227 38.096 16.464C38.6293 16.7947 39.2587 16.96 39.984 16.96C40.688 16.96 41.3013 16.784 41.824 16.432C42.3467 16.0693 42.7253 15.5307 42.96 14.816L44.24 15.296ZM49.7688 9.84C50.5261 9.84 51.1928 10.0053 51.7688 10.336C52.3554 10.6667 52.8141 11.1467 53.1448 11.776C53.4754 12.3947 53.6408 13.136 53.6408 14C53.6408 14.864 53.4754 15.6107 53.1448 16.24C52.8141 16.8587 52.3554 17.3333 51.7688 17.664C51.1928 17.9947 50.5261 18.16 49.7688 18.16C49.0221 18.16 48.3554 17.9947 47.7688 17.664C47.1821 17.3333 46.7234 16.8587 46.3928 16.24C46.0621 15.6107 45.8968 14.864 45.8968 14C45.8968 13.136 46.0621 12.3947 46.3928 11.776C46.7234 11.1467 47.1821 10.6667 47.7688 10.336C48.3554 10.0053 49.0221 9.84 49.7688 9.84ZM49.7688 10.944C49.2248 10.944 48.7608 11.0667 48.3768 11.312C47.9928 11.5573 47.6941 11.9093 47.4808 12.368C47.2781 12.816 47.1768 13.36 47.1768 14C47.1768 14.6293 47.2781 15.1733 47.4808 15.632C47.6941 16.0907 47.9928 16.4427 48.3768 16.688C48.7608 16.9333 49.2248 17.056 49.7688 17.056C50.3128 17.056 50.7768 16.9333 51.1608 16.688C51.5448 16.4427 51.8381 16.0907 52.0408 15.632C52.2541 15.1733 52.3608 14.6293 52.3608 14C52.3608 13.36 52.2541 12.816 52.0408 12.368C51.8381 11.9093 51.5448 11.5573 51.1608 11.312C50.7768 11.0667 50.3128 10.944 49.7688 10.944ZM56.0505 18V10H57.1705L57.2825 11.792L57.0745 11.616C57.2452 11.1893 57.4745 10.848 57.7625 10.592C58.0505 10.3253 58.3812 10.1333 58.7545 10.016C59.1385 9.89867 59.5332 9.84 59.9385 9.84C60.5145 9.84 61.0372 9.952 61.5065 10.176C61.9758 10.3893 62.3492 10.72 62.6265 11.168C62.9145 11.616 63.0585 12.1867 63.0585 12.88V18H61.7785V13.328C61.7785 12.4427 61.5865 11.8293 61.2025 11.488C60.8292 11.136 60.3652 10.96 59.8105 10.96C59.4265 10.96 59.0425 11.0507 58.6585 11.232C58.2745 11.4133 57.9545 11.7067 57.6985 12.112C57.4532 12.5173 57.3305 13.0613 57.3305 13.744V18H56.0505ZM67.7354 7.728V15.792C67.7354 16.1867 67.8474 16.48 68.0714 16.672C68.2954 16.864 68.5834 16.96 68.9354 16.96C69.2447 16.96 69.5114 16.9067 69.7354 16.8C69.9594 16.6933 70.162 16.5493 70.3434 16.368L70.7914 17.44C70.546 17.664 70.2527 17.84 69.9114 17.968C69.5807 18.096 69.1967 18.16 68.7594 18.16C68.354 18.16 67.9754 18.0907 67.6234 17.952C67.2714 17.8027 66.9887 17.5733 66.7754 17.264C66.5727 16.944 66.466 16.528 66.4554 16.016V8.08L67.7354 7.728ZM70.6474 10V11.104H64.8554V10H70.6474ZM72.5505 18V10H73.5905L73.7665 11.312C73.9905 10.8213 74.3158 10.4533 74.7425 10.208C75.1798 9.96267 75.7078 9.84 76.3265 9.84C76.4652 9.84 76.6145 9.85067 76.7745 9.872C76.9452 9.89333 77.0892 9.936 77.2065 10L76.9825 11.168C76.8652 11.1253 76.7372 11.0933 76.5985 11.072C76.4598 11.0507 76.2625 11.04 76.0065 11.04C75.6758 11.04 75.3398 11.136 74.9985 11.328C74.6678 11.52 74.3905 11.8133 74.1665 12.208C73.9425 12.592 73.8305 13.0827 73.8305 13.68V18H72.5505ZM83.535 12.832C83.535 12.2347 83.375 11.776 83.055 11.456C82.735 11.1253 82.2817 10.96 81.695 10.96C81.1403 10.96 80.671 11.0827 80.287 11.328C79.903 11.5627 79.6203 11.9467 79.439 12.48L78.399 11.84C78.6123 11.2427 79.007 10.7627 79.583 10.4C80.159 10.0267 80.8737 9.84 81.727 9.84C82.303 9.84 82.8257 9.94133 83.295 10.144C83.7643 10.336 84.1323 10.6347 84.399 11.04C84.6763 11.4347 84.815 11.9467 84.815 12.576V16.448C84.815 16.832 85.0177 17.024 85.423 17.024C85.6257 17.024 85.823 16.9973 86.015 16.944L85.951 17.952C85.7377 18.0587 85.4603 18.112 85.119 18.112C84.8097 18.112 84.5323 18.0533 84.287 17.936C84.0417 17.8187 83.8497 17.6427 83.711 17.408C83.5723 17.1627 83.503 16.8587 83.503 16.496V16.336L83.823 16.384C83.695 16.8 83.4763 17.1413 83.167 17.408C82.8577 17.664 82.511 17.856 82.127 17.984C81.743 18.1013 81.3643 18.16 80.991 18.16C80.5217 18.16 80.0843 18.08 79.679 17.92C79.2737 17.76 78.9483 17.52 78.703 17.2C78.4683 16.8693 78.351 16.464 78.351 15.984C78.351 15.3867 78.5483 14.896 78.943 14.512C79.3483 14.1173 79.9083 13.8507 80.623 13.712L83.791 13.088V14.144L81.215 14.672C80.6923 14.7787 80.303 14.928 80.047 15.12C79.791 15.312 79.663 15.5787 79.663 15.92C79.663 16.2507 79.791 16.5227 80.047 16.736C80.3137 16.9387 80.687 17.04 81.167 17.04C81.4763 17.04 81.7697 17.0027 82.047 16.928C82.335 16.8427 82.591 16.72 82.815 16.56C83.039 16.3893 83.215 16.1813 83.343 15.936C83.471 15.68 83.535 15.3813 83.535 15.04V12.832ZM87.9255 18V10H88.9655L89.1415 11.312C89.3655 10.8213 89.6908 10.4533 90.1175 10.208C90.5548 9.96267 91.0828 9.84 91.7015 9.84C91.8402 9.84 91.9895 9.85067 92.1495 9.872C92.3202 9.89333 92.4642 9.936 92.5815 10L92.3575 11.168C92.2402 11.1253 92.1122 11.0933 91.9735 11.072C91.8348 11.0507 91.6375 11.04 91.3815 11.04C91.0508 11.04 90.7148 11.136 90.3735 11.328C90.0428 11.52 89.7655 11.8133 89.5415 12.208C89.3175 12.592 89.2055 13.0827 89.2055 13.68V18H87.9255ZM101.033 10L97.2728 19.344C97.0701 19.8667 96.8461 20.2773 96.6008 20.576C96.3661 20.8853 96.0994 21.104 95.8008 21.232C95.5128 21.3707 95.1768 21.44 94.7928 21.44C94.4301 21.44 94.0941 21.3867 93.7848 21.28C93.4861 21.184 93.2194 21.0507 92.9848 20.88L93.3368 19.76C93.5501 19.952 93.7741 20.0907 94.0088 20.176C94.2541 20.272 94.4941 20.32 94.7288 20.32C95.0061 20.32 95.2674 20.2347 95.5128 20.064C95.7581 19.8933 95.9821 19.5467 96.1848 19.024L96.6008 17.984L95.8008 16.08L93.2568 10H94.7128L96.7128 15.216L97.2088 16.64L97.7848 15.056L99.6568 10H101.033ZM109.329 7.728V15.792C109.329 16.1867 109.441 16.48 109.665 16.672C109.889 16.864 110.177 16.96 110.529 16.96C110.838 16.96 111.105 16.9067 111.329 16.8C111.553 16.6933 111.756 16.5493 111.937 16.368L112.385 17.44C112.14 17.664 111.846 17.84 111.505 17.968C111.174 18.096 110.79 18.16 110.353 18.16C109.948 18.16 109.569 18.0907 109.217 17.952C108.865 17.8027 108.582 17.5733 108.369 17.264C108.166 16.944 108.06 16.528 108.049 16.016V8.08L109.329 7.728ZM112.241 10V11.104H106.449V10H112.241ZM117.456 9.84C118.214 9.84 118.88 10.0053 119.456 10.336C120.043 10.6667 120.502 11.1467 120.832 11.776C121.163 12.3947 121.328 13.136 121.328 14C121.328 14.864 121.163 15.6107 120.832 16.24C120.502 16.8587 120.043 17.3333 119.456 17.664C118.88 17.9947 118.214 18.16 117.456 18.16C116.71 18.16 116.043 17.9947 115.456 17.664C114.87 17.3333 114.411 16.8587 114.08 16.24C113.75 15.6107 113.584 14.864 113.584 14C113.584 13.136 113.75 12.3947 114.08 11.776C114.411 11.1467 114.87 10.6667 115.456 10.336C116.043 10.0053 116.71 9.84 117.456 9.84ZM117.456 10.944C116.912 10.944 116.448 11.0667 116.064 11.312C115.68 11.5573 115.382 11.9093 115.168 12.368C114.966 12.816 114.864 13.36 114.864 14C114.864 14.6293 114.966 15.1733 115.168 15.632C115.382 16.0907 115.68 16.4427 116.064 16.688C116.448 16.9333 116.912 17.056 117.456 17.056C118 17.056 118.464 16.9333 118.848 16.688C119.232 16.4427 119.526 16.0907 119.728 15.632C119.942 15.1733 120.048 14.6293 120.048 14C120.048 13.36 119.942 12.816 119.728 12.368C119.526 11.9093 119.232 11.5573 118.848 11.312C118.464 11.0667 118 10.944 117.456 10.944ZM129.191 21.36V10H130.311L130.423 11.952L130.247 11.728C130.386 11.3547 130.594 11.0293 130.871 10.752C131.148 10.464 131.484 10.24 131.879 10.08C132.274 9.92 132.7 9.84 133.159 9.84C133.81 9.84 134.407 10.0053 134.951 10.336C135.506 10.6667 135.948 11.1413 136.279 11.76C136.61 12.3787 136.775 13.1253 136.775 14C136.775 14.864 136.604 15.6107 136.263 16.24C135.932 16.8587 135.49 17.3333 134.935 17.664C134.38 17.9947 133.772 18.16 133.111 18.16C132.45 18.16 131.868 18 131.367 17.68C130.876 17.3493 130.524 16.9333 130.311 16.432L130.471 16.192V21.36H129.191ZM132.983 17.04C133.772 17.04 134.386 16.7627 134.823 16.208C135.271 15.6533 135.495 14.9173 135.495 14C135.495 13.0827 135.276 12.3467 134.839 11.792C134.412 11.2373 133.81 10.96 133.031 10.96C132.519 10.96 132.071 11.088 131.687 11.344C131.303 11.5893 131.004 11.9413 130.791 12.4C130.578 12.848 130.471 13.3813 130.471 14C130.471 14.608 130.572 15.1413 130.775 15.6C130.988 16.0587 131.282 16.416 131.655 16.672C132.039 16.9173 132.482 17.04 132.983 17.04ZM142.534 9.84C143.292 9.84 143.958 10.0053 144.534 10.336C145.121 10.6667 145.58 11.1467 145.91 11.776C146.241 12.3947 146.406 13.136 146.406 14C146.406 14.864 146.241 15.6107 145.91 16.24C145.58 16.8587 145.121 17.3333 144.534 17.664C143.958 17.9947 143.292 18.16 142.534 18.16C141.788 18.16 141.121 17.9947 140.534 17.664C139.948 17.3333 139.489 16.8587 139.158 16.24C138.828 15.6107 138.662 14.864 138.662 14C138.662 13.136 138.828 12.3947 139.158 11.776C139.489 11.1467 139.948 10.6667 140.534 10.336C141.121 10.0053 141.788 9.84 142.534 9.84ZM142.534 10.944C141.99 10.944 141.526 11.0667 141.142 11.312C140.758 11.5573 140.46 11.9093 140.246 12.368C140.044 12.816 139.942 13.36 139.942 14C139.942 14.6293 140.044 15.1733 140.246 15.632C140.46 16.0907 140.758 16.4427 141.142 16.688C141.526 16.9333 141.99 17.056 142.534 17.056C143.078 17.056 143.542 16.9333 143.926 16.688C144.31 16.4427 144.604 16.0907 144.806 15.632C145.02 15.1733 145.126 14.6293 145.126 14C145.126 13.36 145.02 12.816 144.806 12.368C144.604 11.9093 144.31 11.5573 143.926 11.312C143.542 11.0667 143.078 10.944 142.534 10.944ZM148.816 21.36V10H149.936L150.048 11.952L149.872 11.728C150.011 11.3547 150.219 11.0293 150.496 10.752C150.773 10.464 151.109 10.24 151.504 10.08C151.899 9.92 152.325 9.84 152.784 9.84C153.435 9.84 154.032 10.0053 154.576 10.336C155.131 10.6667 155.573 11.1413 155.904 11.76C156.235 12.3787 156.4 13.1253 156.4 14C156.4 14.864 156.229 15.6107 155.888 16.24C155.557 16.8587 155.115 17.3333 154.56 17.664C154.005 17.9947 153.397 18.16 152.736 18.16C152.075 18.16 151.493 18 150.992 17.68C150.501 17.3493 150.149 16.9333 149.936 16.432L150.096 16.192V21.36H148.816ZM152.608 17.04C153.397 17.04 154.011 16.7627 154.448 16.208C154.896 15.6533 155.12 14.9173 155.12 14C155.12 13.0827 154.901 12.3467 154.464 11.792C154.037 11.2373 153.435 10.96 152.656 10.96C152.144 10.96 151.696 11.088 151.312 11.344C150.928 11.5893 150.629 11.9413 150.416 12.4C150.203 12.848 150.096 13.3813 150.096 14C150.096 14.608 150.197 15.1413 150.4 15.6C150.613 16.0587 150.907 16.416 151.28 16.672C151.664 16.9173 152.107 17.04 152.608 17.04ZM161.743 18.16C161.231 18.16 160.746 18.064 160.287 17.872C159.839 17.68 159.471 17.3707 159.183 16.944C158.906 16.5067 158.767 15.9413 158.767 15.248V10H160.047V14.912C160.047 15.7227 160.223 16.2827 160.575 16.592C160.927 16.8907 161.423 17.04 162.063 17.04C162.362 17.04 162.655 16.992 162.943 16.896C163.231 16.7893 163.487 16.6293 163.711 16.416C163.946 16.192 164.127 15.9093 164.255 15.568C164.394 15.2267 164.463 14.8213 164.463 14.352V10H165.743V18H164.623L164.543 16.784C164.266 17.264 163.887 17.616 163.407 17.84C162.938 18.0533 162.383 18.16 161.743 18.16ZM169.938 6.32V15.968C169.938 16.3733 170.013 16.656 170.162 16.816C170.312 16.9653 170.552 17.04 170.882 17.04C171.096 17.04 171.272 17.024 171.41 16.992C171.549 16.96 171.736 16.9013 171.97 16.816L171.762 17.936C171.592 18.0107 171.405 18.064 171.202 18.096C171 18.1387 170.792 18.16 170.578 18.16C169.928 18.16 169.442 17.984 169.122 17.632C168.813 17.28 168.658 16.7413 168.658 16.016V6.32H169.938ZM178.285 12.832C178.285 12.2347 178.125 11.776 177.805 11.456C177.485 11.1253 177.032 10.96 176.445 10.96C175.89 10.96 175.421 11.0827 175.037 11.328C174.653 11.5627 174.37 11.9467 174.189 12.48L173.149 11.84C173.362 11.2427 173.757 10.7627 174.333 10.4C174.909 10.0267 175.624 9.84 176.477 9.84C177.053 9.84 177.576 9.94133 178.045 10.144C178.514 10.336 178.882 10.6347 179.149 11.04C179.426 11.4347 179.565 11.9467 179.565 12.576V16.448C179.565 16.832 179.768 17.024 180.173 17.024C180.376 17.024 180.573 16.9973 180.765 16.944L180.701 17.952C180.488 18.0587 180.21 18.112 179.869 18.112C179.56 18.112 179.282 18.0533 179.037 17.936C178.792 17.8187 178.6 17.6427 178.461 17.408C178.322 17.1627 178.253 16.8587 178.253 16.496V16.336L178.573 16.384C178.445 16.8 178.226 17.1413 177.917 17.408C177.608 17.664 177.261 17.856 176.877 17.984C176.493 18.1013 176.114 18.16 175.741 18.16C175.272 18.16 174.834 18.08 174.429 17.92C174.024 17.76 173.698 17.52 173.453 17.2C173.218 16.8693 173.101 16.464 173.101 15.984C173.101 15.3867 173.298 14.896 173.693 14.512C174.098 14.1173 174.658 13.8507 175.373 13.712L178.541 13.088V14.144L175.965 14.672C175.442 14.7787 175.053 14.928 174.797 15.12C174.541 15.312 174.413 15.5787 174.413 15.92C174.413 16.2507 174.541 16.5227 174.797 16.736C175.064 16.9387 175.437 17.04 175.917 17.04C176.226 17.04 176.52 17.0027 176.797 16.928C177.085 16.8427 177.341 16.72 177.565 16.56C177.789 16.3893 177.965 16.1813 178.093 15.936C178.221 15.68 178.285 15.3813 178.285 15.04V12.832ZM182.676 18V10H183.716L183.892 11.312C184.116 10.8213 184.441 10.4533 184.868 10.208C185.305 9.96267 185.833 9.84 186.452 9.84C186.59 9.84 186.74 9.85067 186.9 9.872C187.07 9.89333 187.214 9.936 187.332 10L187.108 11.168C186.99 11.1253 186.862 11.0933 186.724 11.072C186.585 11.0507 186.388 11.04 186.132 11.04C185.801 11.04 185.465 11.136 185.124 11.328C184.793 11.52 184.516 11.8133 184.292 12.208C184.068 12.592 183.956 13.0827 183.956 13.68V18H182.676ZM198.205 18.16C197.757 18.16 197.341 18.08 196.957 17.92C196.573 17.76 196.242 17.536 195.965 17.248C195.688 16.96 195.48 16.6347 195.341 16.272L195.517 16.048L195.405 18H194.285V6.32H195.565V11.808L195.405 11.568C195.618 11.0667 195.976 10.656 196.477 10.336C196.989 10.0053 197.57 9.84 198.221 9.84C198.882 9.84 199.49 10.0053 200.045 10.336C200.6 10.6667 201.042 11.1413 201.373 11.76C201.704 12.3787 201.869 13.1253 201.869 14C201.869 14.864 201.698 15.6107 201.357 16.24C201.026 16.8587 200.584 17.3333 200.029 17.664C199.474 17.9947 198.866 18.16 198.205 18.16ZM198.077 17.04C198.866 17.04 199.48 16.7627 199.917 16.208C200.365 15.6533 200.589 14.9173 200.589 14C200.589 13.0827 200.37 12.3467 199.933 11.792C199.496 11.2373 198.882 10.96 198.093 10.96C197.592 10.96 197.149 11.088 196.765 11.344C196.392 11.6 196.098 11.9573 195.885 12.416C195.672 12.8747 195.565 13.4133 195.565 14.032C195.565 14.64 195.666 15.1733 195.869 15.632C196.082 16.08 196.376 16.4267 196.749 16.672C197.133 16.9173 197.576 17.04 198.077 17.04ZM207.66 18.16C206.903 18.16 206.225 17.9947 205.628 17.664C205.041 17.3333 204.583 16.8587 204.252 16.24C203.921 15.6107 203.756 14.864 203.756 14C203.756 13.136 203.921 12.3947 204.252 11.776C204.583 11.1467 205.036 10.6667 205.612 10.336C206.188 10.0053 206.844 9.84 207.58 9.84C208.327 9.84 208.961 10 209.484 10.32C210.017 10.64 210.423 11.0773 210.7 11.632C210.977 12.176 211.116 12.7893 211.116 13.472C211.116 13.6533 211.111 13.8187 211.1 13.968C211.089 14.1173 211.073 14.2507 211.052 14.368H204.588V13.232H210.492L209.836 13.36C209.836 12.592 209.623 12 209.196 11.584C208.78 11.168 208.231 10.96 207.548 10.96C207.025 10.96 206.572 11.0827 206.188 11.328C205.815 11.5627 205.521 11.9093 205.308 12.368C205.105 12.816 205.004 13.36 205.004 14C205.004 14.6293 205.111 15.1733 205.324 15.632C205.537 16.0907 205.836 16.4427 206.22 16.688C206.615 16.9227 207.084 17.04 207.628 17.04C208.215 17.04 208.689 16.928 209.052 16.704C209.425 16.48 209.724 16.176 209.948 15.792L210.956 16.384C210.753 16.7467 210.492 17.0613 210.172 17.328C209.863 17.5947 209.495 17.8027 209.068 17.952C208.652 18.0907 208.183 18.16 207.66 18.16ZM214.767 6.32V15.968C214.767 16.3733 214.841 16.656 214.991 16.816C215.14 16.9653 215.38 17.04 215.711 17.04C215.924 17.04 216.1 17.024 216.239 16.992C216.377 16.96 216.564 16.9013 216.799 16.816L216.591 17.936C216.42 18.0107 216.233 18.064 216.031 18.096C215.828 18.1387 215.62 18.16 215.407 18.16C214.756 18.16 214.271 17.984 213.951 17.632C213.641 17.28 213.487 16.7413 213.487 16.016V6.32H214.767ZM219.081 8.464C218.793 8.464 218.558 8.37867 218.377 8.208C218.206 8.02667 218.121 7.792 218.121 7.504C218.121 7.216 218.206 6.98667 218.377 6.816C218.558 6.63467 218.793 6.544 219.081 6.544C219.369 6.544 219.598 6.63467 219.769 6.816C219.95 6.98667 220.041 7.216 220.041 7.504C220.041 7.792 219.95 8.02667 219.769 8.208C219.598 8.37867 219.369 8.464 219.081 8.464ZM219.721 10V18H218.441V10H219.721ZM226.035 18.16C225.278 18.16 224.6 17.9947 224.003 17.664C223.416 17.3333 222.958 16.8587 222.627 16.24C222.296 15.6107 222.131 14.864 222.131 14C222.131 13.136 222.296 12.3947 222.627 11.776C222.958 11.1467 223.411 10.6667 223.987 10.336C224.563 10.0053 225.219 9.84 225.955 9.84C226.702 9.84 227.336 10 227.859 10.32C228.392 10.64 228.798 11.0773 229.075 11.632C229.352 12.176 229.491 12.7893 229.491 13.472C229.491 13.6533 229.486 13.8187 229.475 13.968C229.464 14.1173 229.448 14.2507 229.427 14.368H222.963V13.232H228.867L228.211 13.36C228.211 12.592 227.998 12 227.571 11.584C227.155 11.168 226.606 10.96 225.923 10.96C225.4 10.96 224.947 11.0827 224.563 11.328C224.19 11.5627 223.896 11.9093 223.683 12.368C223.48 12.816 223.379 13.36 223.379 14C223.379 14.6293 223.486 15.1733 223.699 15.632C223.912 16.0907 224.211 16.4427 224.595 16.688C224.99 16.9227 225.459 17.04 226.003 17.04C226.59 17.04 227.064 16.928 227.427 16.704C227.8 16.48 228.099 16.176 228.323 15.792L229.331 16.384C229.128 16.7467 228.867 17.0613 228.547 17.328C228.238 17.5947 227.87 17.8027 227.443 17.952C227.027 18.0907 226.558 18.16 226.035 18.16ZM235.095 6.24C235.373 6.24 235.634 6.272 235.879 6.336C236.125 6.4 236.317 6.49067 236.455 6.608L236.119 7.648C235.991 7.56267 235.853 7.504 235.703 7.472C235.554 7.42933 235.389 7.408 235.207 7.408C234.749 7.408 234.391 7.52 234.135 7.744C233.879 7.95733 233.751 8.304 233.751 8.784V10V10.416V18H232.471V8.656C232.471 8.304 232.525 7.97867 232.631 7.68C232.738 7.38133 232.898 7.12533 233.111 6.912C233.335 6.69867 233.613 6.53333 233.943 6.416C234.274 6.29867 234.658 6.24 235.095 6.24ZM236.423 10V11.104H230.871V10H236.423ZM237.753 16.08C238.009 16.08 238.222 16.1493 238.393 16.288C238.574 16.416 238.713 16.5973 238.809 16.832C238.905 17.056 238.953 17.3227 238.953 17.632C238.953 17.984 238.889 18.3307 238.761 18.672C238.644 19.0133 238.457 19.328 238.201 19.616C237.945 19.904 237.614 20.144 237.209 20.336L236.537 19.712C236.825 19.616 237.076 19.4827 237.289 19.312C237.513 19.1413 237.694 18.9493 237.833 18.736C237.972 18.5227 238.062 18.304 238.105 18.08L238.041 18.048C237.998 18.08 237.945 18.1067 237.881 18.128C237.817 18.1493 237.721 18.16 237.593 18.16C237.465 18.16 237.332 18.1227 237.193 18.048C237.065 17.9733 236.953 17.8667 236.857 17.728C236.761 17.5787 236.713 17.3867 236.713 17.152C236.713 16.96 236.761 16.784 236.857 16.624C236.953 16.4533 237.076 16.32 237.225 16.224C237.385 16.128 237.561 16.08 237.753 16.08ZM247.456 8.464C247.168 8.464 246.933 8.37867 246.752 8.208C246.581 8.02667 246.496 7.792 246.496 7.504C246.496 7.216 246.581 6.98667 246.752 6.816C246.933 6.63467 247.168 6.544 247.456 6.544C247.744 6.544 247.973 6.63467 248.144 6.816C248.325 6.98667 248.416 7.216 248.416 7.504C248.416 7.792 248.325 8.02667 248.144 8.208C247.973 8.37867 247.744 8.464 247.456 8.464ZM248.096 10V18H246.816V10H248.096ZM253.946 18.16C253.167 18.16 252.447 17.9947 251.786 17.664C251.135 17.3333 250.634 16.864 250.282 16.256L251.37 15.472C251.605 15.9627 251.946 16.3467 252.394 16.624C252.853 16.9013 253.402 17.04 254.042 17.04C254.607 17.04 255.05 16.9333 255.37 16.72C255.69 16.496 255.85 16.208 255.85 15.856C255.85 15.632 255.775 15.4293 255.626 15.248C255.487 15.056 255.215 14.9173 254.81 14.832L252.89 14.432C252.111 14.272 251.551 14.0053 251.21 13.632C250.879 13.2587 250.714 12.7947 250.714 12.24C250.714 11.8027 250.837 11.4027 251.082 11.04C251.338 10.6773 251.695 10.3893 252.154 10.176C252.623 9.952 253.173 9.84 253.802 9.84C254.591 9.84 255.258 9.99467 255.802 10.304C256.346 10.6133 256.751 11.0507 257.018 11.616L255.946 12.32C255.765 11.8507 255.471 11.5093 255.066 11.296C254.661 11.072 254.239 10.96 253.802 10.96C253.418 10.96 253.087 11.0133 252.81 11.12C252.543 11.2267 252.335 11.376 252.186 11.568C252.047 11.7493 251.978 11.9573 251.978 12.192C251.978 12.4267 252.058 12.6453 252.218 12.848C252.378 13.04 252.677 13.1787 253.114 13.264L255.114 13.68C255.861 13.8293 256.383 14.0747 256.682 14.416C256.981 14.7573 257.13 15.1733 257.13 15.664C257.13 16.1653 256.997 16.608 256.73 16.992C256.463 17.3653 256.09 17.6533 255.61 17.856C255.13 18.0587 254.575 18.16 253.946 18.16ZM264.957 18V10H266.077L266.189 11.792L265.981 11.616C266.151 11.1893 266.381 10.848 266.669 10.592C266.957 10.3253 267.287 10.1333 267.661 10.016C268.045 9.89867 268.439 9.84 268.845 9.84C269.421 9.84 269.943 9.952 270.413 10.176C270.882 10.3893 271.255 10.72 271.533 11.168C271.821 11.616 271.965 12.1867 271.965 12.88V18H270.685V13.328C270.685 12.4427 270.493 11.8293 270.109 11.488C269.735 11.136 269.271 10.96 268.717 10.96C268.333 10.96 267.949 11.0507 267.565 11.232C267.181 11.4133 266.861 11.7067 266.605 12.112C266.359 12.5173 266.237 13.0613 266.237 13.744V18H264.957ZM278.175 9.84C278.932 9.84 279.599 10.0053 280.175 10.336C280.762 10.6667 281.22 11.1467 281.551 11.776C281.882 12.3947 282.047 13.136 282.047 14C282.047 14.864 281.882 15.6107 281.551 16.24C281.22 16.8587 280.762 17.3333 280.175 17.664C279.599 17.9947 278.932 18.16 278.175 18.16C277.428 18.16 276.762 17.9947 276.175 17.664C275.588 17.3333 275.13 16.8587 274.799 16.24C274.468 15.6107 274.303 14.864 274.303 14C274.303 13.136 274.468 12.3947 274.799 11.776C275.13 11.1467 275.588 10.6667 276.175 10.336C276.762 10.0053 277.428 9.84 278.175 9.84ZM278.175 10.944C277.631 10.944 277.167 11.0667 276.783 11.312C276.399 11.5573 276.1 11.9093 275.887 12.368C275.684 12.816 275.583 13.36 275.583 14C275.583 14.6293 275.684 15.1733 275.887 15.632C276.1 16.0907 276.399 16.4427 276.783 16.688C277.167 16.9333 277.631 17.056 278.175 17.056C278.719 17.056 279.183 16.9333 279.567 16.688C279.951 16.4427 280.244 16.0907 280.447 15.632C280.66 15.1733 280.767 14.6293 280.767 14C280.767 13.36 280.66 12.816 280.447 12.368C280.244 11.9093 279.951 11.5573 279.567 11.312C279.183 11.0667 278.719 10.944 278.175 10.944ZM286.204 7.728V15.792C286.204 16.1867 286.316 16.48 286.54 16.672C286.764 16.864 287.052 16.96 287.404 16.96C287.713 16.96 287.98 16.9067 288.204 16.8C288.428 16.6933 288.631 16.5493 288.812 16.368L289.26 17.44C289.015 17.664 288.721 17.84 288.38 17.968C288.049 18.096 287.665 18.16 287.228 18.16C286.823 18.16 286.444 18.0907 286.092 17.952C285.74 17.8027 285.457 17.5733 285.244 17.264C285.041 16.944 284.935 16.528 284.924 16.016V8.08L286.204 7.728ZM289.116 10V11.104H283.324V10H289.116ZM299.352 18.16C298.574 18.16 297.854 17.9947 297.192 17.664C296.542 17.3333 296.04 16.864 295.688 16.256L296.776 15.472C297.011 15.9627 297.352 16.3467 297.8 16.624C298.259 16.9013 298.808 17.04 299.448 17.04C300.014 17.04 300.456 16.9333 300.776 16.72C301.096 16.496 301.256 16.208 301.256 15.856C301.256 15.632 301.182 15.4293 301.032 15.248C300.894 15.056 300.622 14.9173 300.216 14.832L298.296 14.432C297.518 14.272 296.958 14.0053 296.616 13.632C296.286 13.2587 296.12 12.7947 296.12 12.24C296.12 11.8027 296.243 11.4027 296.488 11.04C296.744 10.6773 297.102 10.3893 297.56 10.176C298.03 9.952 298.579 9.84 299.208 9.84C299.998 9.84 300.664 9.99467 301.208 10.304C301.752 10.6133 302.158 11.0507 302.424 11.616L301.352 12.32C301.171 11.8507 300.878 11.5093 300.472 11.296C300.067 11.072 299.646 10.96 299.208 10.96C298.824 10.96 298.494 11.0133 298.216 11.12C297.95 11.2267 297.742 11.376 297.592 11.568C297.454 11.7493 297.384 11.9573 297.384 12.192C297.384 12.4267 297.464 12.6453 297.624 12.848C297.784 13.04 298.083 13.1787 298.52 13.264L300.52 13.68C301.267 13.8293 301.79 14.0747 302.088 14.416C302.387 14.7573 302.536 15.1733 302.536 15.664C302.536 16.1653 302.403 16.608 302.136 16.992C301.87 17.3653 301.496 17.6533 301.016 17.856C300.536 18.0587 299.982 18.16 299.352 18.16ZM305.55 8.464C305.262 8.464 305.027 8.37867 304.846 8.208C304.675 8.02667 304.59 7.792 304.59 7.504C304.59 7.216 304.675 6.98667 304.846 6.816C305.027 6.63467 305.262 6.544 305.55 6.544C305.838 6.544 306.067 6.63467 306.238 6.816C306.419 6.98667 306.51 7.216 306.51 7.504C306.51 7.792 306.419 8.02667 306.238 8.208C306.067 8.37867 305.838 8.464 305.55 8.464ZM306.19 10V18H304.91V10H306.19ZM309.16 18V10H310.28L310.36 11.248C310.648 10.7573 311.021 10.4 311.48 10.176C311.949 9.952 312.429 9.84 312.92 9.84C313.485 9.84 314.019 9.968 314.52 10.224C315.021 10.48 315.405 10.8747 315.672 11.408C315.843 11.0453 316.083 10.752 316.392 10.528C316.701 10.2933 317.037 10.1227 317.4 10.016C317.773 9.89867 318.125 9.84 318.456 9.84C318.968 9.84 319.453 9.94667 319.912 10.16C320.381 10.3733 320.765 10.704 321.064 11.152C321.363 11.6 321.512 12.176 321.512 12.88V18H320.232V13.008C320.232 12.2827 320.051 11.76 319.688 11.44C319.325 11.12 318.877 10.96 318.344 10.96C317.928 10.96 317.539 11.0613 317.176 11.264C316.813 11.4667 316.52 11.7653 316.296 12.16C316.083 12.5547 315.976 13.04 315.976 13.616V18H314.696V13.008C314.696 12.2827 314.515 11.76 314.152 11.44C313.789 11.12 313.341 10.96 312.808 10.96C312.456 10.96 312.093 11.056 311.72 11.248C311.357 11.4293 311.053 11.7227 310.808 12.128C310.563 12.5333 310.44 13.0667 310.44 13.728V18H309.16ZM324.41 21.36V10H325.53L325.642 11.952L325.466 11.728C325.605 11.3547 325.813 11.0293 326.09 10.752C326.367 10.464 326.703 10.24 327.098 10.08C327.493 9.92 327.919 9.84 328.378 9.84C329.029 9.84 329.626 10.0053 330.17 10.336C330.725 10.6667 331.167 11.1413 331.498 11.76C331.829 12.3787 331.994 13.1253 331.994 14C331.994 14.864 331.823 15.6107 331.482 16.24C331.151 16.8587 330.709 17.3333 330.154 17.664C329.599 17.9947 328.991 18.16 328.33 18.16C327.669 18.16 327.087 18 326.586 17.68C326.095 17.3493 325.743 16.9333 325.53 16.432L325.69 16.192V21.36H324.41ZM328.202 17.04C328.991 17.04 329.605 16.7627 330.042 16.208C330.49 15.6533 330.714 14.9173 330.714 14C330.714 13.0827 330.495 12.3467 330.058 11.792C329.631 11.2373 329.029 10.96 328.25 10.96C327.738 10.96 327.29 11.088 326.906 11.344C326.522 11.5893 326.223 11.9413 326.01 12.4C325.797 12.848 325.69 13.3813 325.69 14C325.69 14.608 325.791 15.1413 325.994 15.6C326.207 16.0587 326.501 16.416 326.874 16.672C327.258 16.9173 327.701 17.04 328.202 17.04ZM335.657 6.32V15.968C335.657 16.3733 335.732 16.656 335.881 16.816C336.03 16.9653 336.27 17.04 336.601 17.04C336.814 17.04 336.99 17.024 337.129 16.992C337.268 16.96 337.454 16.9013 337.689 16.816L337.481 17.936C337.31 18.0107 337.124 18.064 336.921 18.096C336.718 18.1387 336.51 18.16 336.297 18.16C335.646 18.16 335.161 17.984 334.841 17.632C334.532 17.28 334.377 16.7413 334.377 16.016V6.32H335.657ZM345.502 10L341.742 19.344C341.539 19.8667 341.315 20.2773 341.07 20.576C340.835 20.8853 340.568 21.104 340.27 21.232C339.982 21.3707 339.646 21.44 339.262 21.44C338.899 21.44 338.563 21.3867 338.254 21.28C337.955 21.184 337.688 21.0507 337.454 20.88L337.806 19.76C338.019 19.952 338.243 20.0907 338.478 20.176C338.723 20.272 338.963 20.32 339.198 20.32C339.475 20.32 339.736 20.2347 339.982 20.064C340.227 19.8933 340.451 19.5467 340.654 19.024L341.07 17.984L340.27 16.08L337.726 10H339.182L341.182 15.216L341.678 16.64L342.254 15.056L344.126 10H345.502ZM346.628 16.08C346.937 16.08 347.188 16.176 347.38 16.368C347.572 16.56 347.668 16.8107 347.668 17.12C347.668 17.4293 347.572 17.68 347.38 17.872C347.188 18.064 346.937 18.16 346.628 18.16C346.319 18.16 346.068 18.064 345.876 17.872C345.684 17.68 345.588 17.4293 345.588 17.12C345.588 16.8107 345.684 16.56 345.876 16.368C346.068 16.176 346.319 16.08 346.628 16.08Z" fill="#444343"/>
<path d="M20 7L9 18L4 13" stroke="#16D887" stroke-width="2" stroke-linecap="round" stroke-linejoin="round"/>
</svg>
